# xmcd
#
# Track frame offsets:
#	150
#	12572
#	21535
#	32702
#	43267
#	55372
#	66860
#	77270
#	96910
#	116432
#	129645
#	140355
#	159817
#	174212
#	190247
#	200737
#	218265
#	231370
#	247197
#	256530
#	271060
#	285240
#	304152
#	316450
#
# Disc length: 4420 seconds
#
# Revision: 1
# Processed by: cddbd v1.5.2PL0 Copyright (c) Steve Scherf et al.
# Submitted via: EZCDAudioConverter 8.0.6.1
#
DISCID=4c114218
DTITLE=Various Artist - Ljuva Country Legender [CD1)
DYEAR=2006
DGENRE=Country
TTITLE0=Johnny Cash and June Carter Cash - Jackson - 1967
TTITLE1=Buck Owens - Love's Gonna Live Here - 1963
TTITLE2=Dolly Parton - Dumb Blonde - 1967
TTITLE3=Kris Kristofferson - Help Me Make It Through The Night - 1969
TTITLE4=Tammy Wynette - Stand By Your Man - 1968
TTITLE5=Waylon Jennings and Willie Nelson - Mammas Don't Let Your Babies Grow Up
TTITLE5=To Be Cowboys - 1978
TTITLE6=Tompall Glaser - Put Another Log On The Fire - 1975
TTITLE7=The Mavericks - Dance The Night Away - 1998
TTITLE8=Alison Krauss and Union Station - When You Say Nothing At All - 1994
TTITLE9=Gram Parsons - Kiss The Children - 1973
TTITLE10=Tanya Tucker - Would You Lay With Me (In A Field Of Stone) - 1973
TTITLE11=Kenny Rogers - Coward Of The County - 1979
TTITLE12=Jeannie C. Riley - Harper Valley P.T.A. - 1968
TTITLE13=Randy Travis - Forever And Ever, Amen - 1987
TTITLE14=Merle Haggard - Tonight I Started Loving You Again - 1968
TTITLE15=The Judds - Love Can Build A Bridge - 1990
TTITLE16=Dwight Yoakam - Try Not To Look So Pretty - 1993
TTITLE17=Texas Tornados - Little Bit Is Better Than Nada - 1996
TTITLE18=Johnny Cash - I Got Stripes - 1959
TTITLE19=Carlene Carter - Every Little Thing - 1993
TTITLE20=Steve Earle - My Friend The Blues - 1986
TTITLE21=Nanci Griffith - From A Distance - 1987
TTITLE22=Hank Williams - Cold, Cold Heart - 1951
TTITLE23=Waylon Jennings - Bob Wills Is Still The King (Live) - 1975
EXTD=
EXTT0=
EXTT1=
EXTT2=
EXTT3=
EXTT4=
EXTT5=
EXTT6=
EXTT7=
EXTT8=
EXTT9=
EXTT10=
EXTT11=
EXTT12=
EXTT13=
EXTT14=
EXTT15=
EXTT16=
EXTT17=
EXTT18=
EXTT19=
EXTT20=
EXTT21=
EXTT22=
EXTT23=
PLAYORDER=
